<svg id="Layer_1" data-name="Layer 1" xmlns="http://www.w3.org/2000/svg" viewBox="0 0 142.48 209.34"><defs><style>.cls-1{fill:#fff;stroke:#000;stroke-miterlimit:10;stroke-width:4px;}</style></defs><title>No-Plastic-Straw</title><path class="cls-1" d="M885.48,518.9a37.68,37.68,0,0,1-16.19,7.53l-.09,0,0-.17h0c0-.12,0-.25,0-.38A33.4,33.4,0,0,1,870.78,510c6.48-18.12,26.24-25.35,28.48-26.13C899.42,485.33,901.23,506.14,885.48,518.9Z" transform="translate(-767.06 -394.83)"/><path class="cls-1" d="M882.91,559.93a153.67,153.67,0,0,0,23.16,30.8l-25.13,10.63a110.45,110.45,0,0,0-12.25-33.81,124.43,124.43,0,0,0-24.32-30.63.41.41,0,0,1,.15-.7l23.91-10.11a.53.53,0,0,1,.73.3A140.38,140.38,0,0,0,882.91,559.93Z" transform="translate(-767.06 -394.83)"/><path class="cls-1" d="M829.3,457.64l-23.93,10.13a.41.41,0,0,0-.17.68,161.28,161.28,0,0,1,24.07,32,146.35,146.35,0,0,1,14.48,35.46.53.53,0,0,0,.73.3l23.93-10.12a.42.42,0,0,0,.16-.7,144.53,144.53,0,0,1-24.64-31.78A130.3,130.3,0,0,1,830,458,.53.53,0,0,0,829.3,457.64Z" transform="translate(-767.06 -394.83)"/><path class="cls-1" d="M807.66,430.57A108.3,108.3,0,0,0,829.41,457a.42.42,0,0,1-.15.71L805.4,467.75a.53.53,0,0,1-.74-.31,107.06,107.06,0,0,0-11.86-31.22,119.42,119.42,0,0,0-22.14-27.93l25.13-10.63A95.49,95.49,0,0,0,807.66,430.57Z" transform="translate(-767.06 -394.83)"/></svg>