<?xml version="1.0" encoding="UTF-8"?> <svg xmlns="http://www.w3.org/2000/svg" viewBox="0 0 63.77 61.66"><defs><style>.cls-1{fill:#36abe1;}</style></defs><title>Recycle</title><g id="Layer_2" data-name="Layer 2"><g id="Layer_1-2" data-name="Layer 1"><path class="cls-1" d="M15.37,10.46l11.69,7.43a1,1,0,0,0,.57.16l.27,0a1,1,0,0,0,.66-.52l4.46-8,4.89,9.25-4.45,2.67A1.09,1.09,0,0,0,33,22.53a1.06,1.06,0,0,0,.92.84l15.82,1.79h.12a1.06,1.06,0,0,0,1-.6L58.35,9a1,1,0,0,0-.5-1.4,1,1,0,0,0-.94,0L52.33,9.88,48.74,3.72A7,7,0,0,0,42.51,0H24.8a7.58,7.58,0,0,0-6.47,3.65L15,9A1.05,1.05,0,0,0,15.37,10.46ZM42.51,2.12a5,5,0,0,1,4.4,2.66l4.09,7a1.07,1.07,0,0,0,1.4.41l2.65-1.36L49.19,23,37.24,21.62,39.87,20a1.07,1.07,0,0,0,.4-1.4L31.54,2.12ZM20.15,4.75A5.43,5.43,0,0,1,24.8,2.12h4.32l2.63,5.29-4.5,8.09L17.4,9.23Z"></path><path class="cls-1" d="M62.84,29.77l-3.45-6.85A1.05,1.05,0,0,0,58,22.43h0l-.06,0L45.15,29.92a1.06,1.06,0,0,0-.4,1.43l4.44,8H39.32V35.08a1.06,1.06,0,0,0-1.85-.71L26.84,46.06a1.07,1.07,0,0,0-.05,1.37L37.42,61.24a1.07,1.07,0,0,0,1.49.2,1.05,1.05,0,0,0,.41-.83V57.42h7.44A6.81,6.81,0,0,0,53,53.7l7.44-12.76,2.2-3.57A7.52,7.52,0,0,0,62.84,29.77ZM51.15,52.63a4.78,4.78,0,0,1-4.39,2.65h-8.5a1.06,1.06,0,0,0-1.06,1.06v1.13L29,46.84l8.18-9v2.53a1.07,1.07,0,0,0,1.06,1.07H57.67Zm9.68-16.39-1.91,3.08H51.64l-4.5-8.1L58,24.87,61,30.76a5.45,5.45,0,0,1-.14,5.48Z"></path><path class="cls-1" d="M19,17.63A1,1,0,0,0,18,17L1,18.08a1.07,1.07,0,0,0-1,1.13,1.12,1.12,0,0,0,.5.84L5.76,23.3l-3.5,7a7.63,7.63,0,0,0,0,7.41L8.18,48l3.24,5.59a7.83,7.83,0,0,0,6.66,3.85h4.25a1.05,1.05,0,0,0,1.06-1.06V41.44a1.06,1.06,0,0,0-1.06-1.06H14.39l5.3-9.19,4.38,1.69a1.07,1.07,0,0,0,1.37-.61h0a1.06,1.06,0,0,0,0-.82Zm2.21,24.9V55.26H18.07a5.62,5.62,0,0,1-4.81-2.77l-2.93-5.05,3-4.91ZM19.59,28.88a1.07,1.07,0,0,0-1.3.47L9.1,45.29l-5-8.62a5.52,5.52,0,0,1,0-5.37l4-7.92A1.06,1.06,0,0,0,7.71,22L4.46,20l13-.81,5,10.78Z"></path></g></g></svg> 