<svg width="85" height="104" viewBox="0 0 85 104" fill="none" xmlns="http://www.w3.org/2000/svg">
<path d="M51.6886 16.0156L51.1795 15.9055V12.1492L51.5932 12.0077C51.965 11.8778 52.287 11.6373 52.5149 11.3193C52.7428 11.0013 52.8654 10.6213 52.8659 10.2317V1.85446C52.8639 1.60478 52.8113 1.35803 52.7113 1.12875C52.6112 0.899464 52.4657 0.692289 52.2834 0.51944C52.101 0.34659 51.8855 0.211565 51.6494 0.122325C51.4134 0.0330855 51.1617 -0.00856203 50.9091 -0.0001618H34.03C33.7801 -0.000170519 33.5326 0.048723 33.3018 0.143697C33.0711 0.238672 32.8617 0.377847 32.6857 0.553191C32.5097 0.728536 32.3706 0.936579 32.2764 1.16532C32.1822 1.39405 32.1348 1.63895 32.1369 1.88589V10.2317C32.1419 10.6202 32.2662 10.9982 32.4935 11.3153C32.7208 11.6325 33.0403 11.8739 33.4096 12.0077L33.8391 12.1492V15.9055L33.33 16.0156C24.928 17.8486 17.2876 22.1594 11.4203 28.3773C5.55292 34.5952 1.73532 42.427 0.472851 50.8358C-0.789617 59.2446 0.562583 67.8339 4.35044 75.4667C8.13831 83.0995 14.1832 89.4158 21.6849 93.5794L22.0031 93.7523V94.0981C22.0939 96.7513 23.225 99.2659 25.1574 101.111C27.0899 102.955 29.6725 103.986 32.3596 103.984H52.6272C55.3117 103.986 57.892 102.958 59.824 101.116C61.7561 99.2749 62.8889 96.7643 62.9838 94.1138V93.7523L63.3019 93.5951C70.7998 89.4264 76.8408 83.108 80.6264 75.475C84.4121 67.842 85.7642 59.2538 84.504 50.8454C83.2438 42.4371 79.4307 34.6044 73.5687 28.3827C67.7066 22.161 60.0716 17.8431 51.6727 15.9998L51.6886 16.0156ZM35.9709 3.75622H49.0796V8.34561H35.9709V3.75622ZM22.0349 89.4301L21.0326 88.7857C19.6308 87.8747 18.2964 86.8663 17.0396 85.768L16.5305 85.3437L22.0349 79.9055V89.4301ZM25.0575 28.1334C23.1205 30.0527 22.0334 32.6529 22.0349 35.3633V74.5774L13.8419 82.6717L13.4124 82.1688C9.15585 77.3689 6.18343 71.5925 4.76624 65.3665C3.34906 59.1405 3.5322 52.663 5.29897 46.5248C7.06574 40.3867 10.3599 34.7832 14.881 30.2255C19.4021 25.6679 25.0063 22.301 31.1824 20.4321L31.8187 21.4694L25.0575 28.1334ZM25.837 53.8309H42.9548L25.837 70.8368V53.8309ZM59.2452 93.7051C59.241 95.4213 58.5491 97.0659 57.3209 98.2794C56.0926 99.4929 54.4279 100.176 52.6909 100.181H32.3755C30.6399 100.176 28.9769 99.4924 27.7511 98.2784C26.5254 97.0645 25.837 95.4198 25.837 93.7051V88.9429H59.2452V93.7051ZM59.2452 85.1393H25.837V76.1492L48.3796 53.878H59.2293L59.2452 85.1393ZM59.2452 50.0588H52.1818L59.2293 43.1118L59.2452 50.0588ZM59.2452 37.7994L46.8365 50.0588H25.837V35.4104C25.8416 33.6944 26.5337 32.05 27.762 30.8368L37.1163 21.5794C37.2956 21.4054 37.4374 21.1973 37.5331 20.9677C37.6287 20.7381 37.6764 20.4917 37.6731 20.2435V12.1177H47.3933V20.2592C47.3945 20.7563 47.588 21.2343 47.9342 21.5951L57.2726 30.8368C58.5009 32.05 59.193 33.6944 59.1975 35.4104L59.2452 37.7994ZM62.9997 34.0431L62.7292 33.0057C62.2825 31.1717 61.3298 29.496 59.977 28.1649L53.2477 21.5008L53.8522 20.4321C59.078 21.9855 63.9061 24.6277 68.0109 28.1806L68.52 28.6207L62.9997 34.0431ZM67.9314 85.7995C66.6952 86.8582 65.3935 87.8398 64.0337 88.7385L63.0474 89.3829V39.4026L71.2404 31.324L71.6858 31.827C78.4209 39.4913 81.806 49.4808 81.0993 59.6065C80.3925 69.7322 75.6516 79.1681 67.9155 85.8466L67.9314 85.7995Z" fill="#1DD479"/>
</svg>
