<svg width="104" height="99" viewBox="0 0 104 99" fill="none" xmlns="http://www.w3.org/2000/svg">
<path d="M25.4086 16.8241L44.2315 28.7422C44.5044 28.9181 44.8244 29.0076 45.1493 28.9989H45.5841C45.8113 28.945 46.0241 28.8425 46.2076 28.6984C46.3911 28.5544 46.541 28.3723 46.6468 28.1648L53.8282 15.3324L61.7019 30.1698L54.5366 34.4527C54.2601 34.6409 54.0434 34.9041 53.9122 35.211C53.781 35.518 53.7406 35.856 53.796 36.185C53.8685 36.5366 54.0509 36.8564 54.317 37.0984C54.5831 37.3404 54.9192 37.4924 55.2773 37.5324L80.7503 40.4037H80.9435C81.2769 40.4177 81.6072 40.3339 81.8934 40.1629C82.1796 39.9918 82.4091 39.7409 82.5537 39.4413L94.6139 14.4822C94.7211 14.2844 94.7853 14.0662 94.8025 13.842C94.8196 13.6178 94.7892 13.3926 94.7133 13.1808C94.6374 12.969 94.5176 12.7756 94.3618 12.6129C94.206 12.4502 94.0176 12.322 93.8088 12.2366C93.5758 12.113 93.3159 12.0484 93.052 12.0484C92.7881 12.0484 92.5282 12.113 92.2952 12.2366L84.9206 15.8938L79.1401 6.01284C78.175 4.20004 76.7296 2.68538 74.9611 1.63339C73.1926 0.581394 71.1685 0.032307 69.1087 0.0457741H40.5925C38.4977 0.048977 36.4389 0.589276 34.6143 1.61467C32.7897 2.64007 31.2608 4.11605 30.1747 5.90056L24.8128 14.4822C24.6943 14.6741 24.6157 14.8877 24.5815 15.1103C24.5473 15.333 24.5583 15.5603 24.6139 15.7786C24.6694 15.997 24.7684 16.202 24.9049 16.3816C25.0414 16.5612 25.2127 16.7117 25.4086 16.8241ZM69.1087 3.44636C70.5668 3.45178 71.996 3.85157 73.2438 4.60305C74.4916 5.35453 75.5111 6.42948 76.1935 7.71314L82.7791 18.9415C83.0016 19.3148 83.358 19.5903 83.7763 19.7123C84.1946 19.8344 84.6438 19.7939 85.0333 19.5991L89.3003 17.4176L79.8647 36.9389L60.6231 34.7253L64.8579 32.1268C65.2299 31.9025 65.503 31.5464 65.6224 31.1299C65.7419 30.7134 65.6988 30.2673 65.5019 29.8811L51.4451 3.44636H69.1087ZM33.1052 7.66501C33.8824 6.37858 34.9802 5.31414 36.2921 4.57497C37.604 3.83581 39.0854 3.44703 40.5925 3.44636H47.5485L51.7832 11.9318L44.5375 24.9086L28.6772 14.8512L33.1052 7.66501Z" fill="#1DD479"/>
<path d="M101.844 47.7985L96.2884 36.8107C96.0937 36.4132 95.7498 36.1079 95.331 35.9608C94.9122 35.8137 94.4522 35.8367 94.0503 36.0247H93.9536L73.3595 48.0391C72.972 48.2612 72.6874 48.6259 72.5669 49.0548C72.4465 49.4838 72.4998 49.9427 72.7155 50.3329L79.8646 63.1653H63.9722V56.316C63.9733 55.9712 63.8691 55.6342 63.6735 55.3498C63.4779 55.0654 63.2001 54.8469 62.877 54.7233C62.5539 54.5998 62.2007 54.5771 61.8643 54.6581C61.5279 54.7391 61.2241 54.9201 60.9934 55.1771L43.8772 73.9285C43.6077 74.2274 43.452 74.6111 43.4373 75.0127C43.4226 75.4143 43.5498 75.8083 43.7967 76.126L60.9129 98.2779C61.1901 98.6349 61.5973 98.8688 62.0464 98.9288C62.4954 98.9888 62.9501 98.8703 63.312 98.5988C63.5169 98.4418 63.6829 98.2403 63.7974 98.0095C63.9118 97.7787 63.9716 97.5248 63.9722 97.2674V92.1505H75.9519C78.0213 92.202 80.063 91.669 81.8411 90.6131C83.6191 89.5571 85.0608 88.0214 85.9994 86.1834L97.9791 65.7157L101.521 59.9892C102.658 58.169 103.286 56.08 103.343 53.9374C103.399 51.7947 102.882 49.6757 101.844 47.7985ZM83.0206 84.4671C82.3694 85.7713 81.3587 86.8638 80.1068 87.6166C78.855 88.3694 77.4138 88.7514 75.9519 88.7178H62.2654C62.0413 88.7178 61.8193 88.7618 61.6123 88.8472C61.4052 88.9327 61.217 89.0579 61.0585 89.2158C60.9001 89.3737 60.7743 89.5611 60.6886 89.7674C60.6028 89.9737 60.5586 90.1948 60.5586 90.4181V92.2307L47.3552 75.1796L60.5264 60.7432V64.8014C60.5264 65.2538 60.7057 65.688 61.0254 66.0094C61.345 66.3308 61.7791 66.5135 62.2332 66.5177H93.5189L83.0206 84.4671ZM98.6071 58.1767L95.5316 63.1171H83.8096L76.5638 50.1243L94.0503 39.9386L98.8808 49.3865C99.626 50.7409 99.9978 52.2678 99.9582 53.8119C99.9186 55.3559 99.4691 56.8619 98.6554 58.1767H98.6071Z" fill="#1DD479"/>
<path d="M31.2535 28.3252C31.1277 28.0081 30.9038 27.7393 30.6143 27.5575C30.3247 27.3758 29.9846 27.2907 29.6433 27.3146L2.27031 29.047C1.81598 29.0759 1.3916 29.2827 1.0899 29.6224C0.788191 29.962 0.633686 30.4068 0.66014 30.8596C0.68337 31.1302 0.767886 31.392 0.907332 31.6254C1.04678 31.8588 1.23752 32.0576 1.46523 32.207L9.93474 37.4201L4.29913 48.6485C3.28544 50.4665 2.75348 52.5118 2.75348 54.5915C2.75348 56.6711 3.28544 58.7165 4.29913 60.5345L13.8314 77.0402L19.0483 86.0068C20.1512 87.8685 21.7178 89.4151 23.5964 90.497C25.4751 91.5789 27.6022 92.1594 29.7721 92.1824H36.6153C36.8401 92.1846 37.063 92.142 37.271 92.0574C37.4791 91.9727 37.6681 91.8475 37.827 91.6892C37.9859 91.5309 38.1116 91.3426 38.1966 91.1353C38.2816 90.9281 38.3243 90.706 38.3221 90.4821V66.5176C38.3221 66.2943 38.278 66.0732 38.1922 65.8669C38.1064 65.6606 37.9807 65.4732 37.8222 65.3153C37.6637 65.1574 37.4756 65.0322 37.2685 64.9467C37.0614 64.8613 36.8395 64.8173 36.6153 64.8173H23.8305L32.3645 50.0761L39.417 52.7869C39.8401 52.9444 40.3083 52.9301 40.7209 52.7471C41.1334 52.5641 41.4574 52.227 41.623 51.8085C41.7107 51.6002 41.7558 51.3766 41.7558 51.1508C41.7558 50.925 41.7107 50.7014 41.623 50.4931L31.2535 28.3252ZM34.8119 68.266V88.6856H29.756C28.1894 88.6762 26.6521 88.2618 25.2945 87.4829C23.9369 86.7041 22.8055 85.5875 22.011 84.2424L17.2932 76.1419L22.1238 68.266H34.8119ZM32.2035 46.3707C31.8214 46.2295 31.4015 46.2277 31.0182 46.3657C30.635 46.5038 30.3133 46.7727 30.1102 47.1246L15.3127 72.6932L7.26185 58.8663C6.52584 57.5492 6.13954 56.0668 6.13954 54.5594C6.13954 53.052 6.52584 51.5696 7.26185 50.2525L13.7026 37.5484C13.8952 37.1682 13.9376 36.7297 13.8214 36.3198C13.7051 35.9099 13.4386 35.5584 13.0746 35.3349L7.84152 32.1268L28.7738 30.8275L36.8246 48.1191L32.2035 46.3707Z" fill="#1DD479"/>
</svg>
