<svg width="70" height="113" viewBox="0 0 70 113" fill="none" xmlns="http://www.w3.org/2000/svg">
<g clip-path="url(#clip0)">
<path d="M58.1794 66.9719C55.8627 69.0074 53.1348 70.4014 50.2253 71.0365H50.1811V70.9448C50.1811 70.88 50.1811 70.8098 50.1811 70.7396C49.8056 67.8554 50.072 64.9142 50.9573 62.1677C54.1409 52.3867 63.849 48.484 64.9495 48.063C65.0281 48.8511 65.9173 60.0842 58.1794 66.9719Z" fill="white" stroke="#1DD479" stroke-width="4" stroke-miterlimit="10"/>
<path d="M56.9168 89.1197C60.0596 95.1642 63.8825 100.75 68.2952 105.745L55.9489 111.483C54.8637 105.079 52.8306 98.9143 49.9305 93.2329C46.7659 87.064 42.7333 81.4839 37.9822 76.6991C37.9553 76.6731 37.9351 76.6397 37.9239 76.6023C37.9126 76.5649 37.9106 76.5249 37.9181 76.4864C37.9256 76.4479 37.9423 76.4123 37.9666 76.3832C37.9908 76.3542 38.0216 76.3328 38.0559 76.3212L49.8028 70.8639C49.8357 70.8464 49.8717 70.8368 49.9082 70.8356C49.9448 70.8344 49.9812 70.8416 50.015 70.8569C50.0489 70.8722 50.0794 70.8951 50.1046 70.9242C50.1298 70.9533 50.1492 70.988 50.1614 71.0258C51.6924 77.3524 53.9631 83.4343 56.9168 89.1197Z" fill="white" stroke="#1DD479" stroke-width="4" stroke-miterlimit="10"/>
<path d="M30.5783 33.9043L18.8216 39.3724C18.7885 39.3836 18.7587 39.4041 18.7349 39.4317C18.7111 39.4593 18.6942 39.4932 18.6858 39.5301C18.6774 39.567 18.6778 39.6056 18.687 39.6423C18.6961 39.6789 18.7137 39.7124 18.7381 39.7394C23.3177 44.9351 27.2901 50.7376 30.5636 57.0128C33.6879 63.0231 36.0797 69.4586 37.6776 76.1538C37.6898 76.1916 37.7092 76.2263 37.7344 76.2554C37.7596 76.2845 37.7901 76.3074 37.824 76.3227C37.8578 76.338 37.8942 76.3453 37.9308 76.3441C37.9673 76.3428 38.0033 76.3332 38.0362 76.3157L49.7929 70.853C49.8266 70.8407 49.8568 70.8191 49.8806 70.7903C49.9045 70.7615 49.9211 70.7264 49.929 70.6884C49.9369 70.6504 49.9358 70.6109 49.9257 70.5735C49.9156 70.5362 49.897 70.5023 49.8716 70.4752C45.1285 65.4047 41.0539 59.6306 37.766 53.3206C34.6368 47.3179 32.3307 40.8408 30.9222 34.0986C30.9129 34.0599 30.8963 34.0237 30.8734 33.9925C30.8506 33.9613 30.822 33.9357 30.7896 33.9174C30.7572 33.8991 30.7216 33.8885 30.6852 33.8862C30.6489 33.8839 30.6124 33.8901 30.5783 33.9043Z" fill="white" stroke="#1DD479" stroke-width="4" stroke-miterlimit="10"/>
<path d="M19.9466 19.2921C22.7977 24.64 26.4046 29.4557 30.6323 33.5588C30.6591 33.5854 30.679 33.6193 30.6901 33.657C30.7013 33.6947 30.7032 33.7349 30.6957 33.7737C30.6883 33.8125 30.6717 33.8484 30.6476 33.878C30.6236 33.9075 30.5929 33.9296 30.5587 33.9421L18.8363 39.3616C18.8028 39.3799 18.7662 39.3901 18.7288 39.3914C18.6914 39.3927 18.6542 39.3852 18.6197 39.3693C18.5852 39.3535 18.5542 39.3296 18.5289 39.2994C18.5035 39.2692 18.4844 39.2333 18.4727 39.1943C17.3448 33.2765 15.3786 27.5899 12.646 22.342C9.727 16.747 6.0604 11.6649 1.76865 7.26558L14.1149 1.52759C15.0465 7.79316 17.0236 13.8157 19.9466 19.2921Z" fill="white" stroke="#1DD479" stroke-width="4" stroke-miterlimit="10"/>
</g>
<defs>
<clipPath id="clip0">
<rect width="70" height="113" fill="white"/>
</clipPath>
</defs>
</svg>
