<svg width="171" height="22" viewBox="0 0 171 22" fill="none" xmlns="http://www.w3.org/2000/svg">
<path d="M3.00534 17.36V11.984H13.6613V17.36H3.00534ZM13.6613 3.992V9.152H3.00534V3.992H13.6613ZM0.0533435 1.112V21.8H3.00534V20.24H13.6613V21.752H16.7333V1.112H0.0533435ZM39.0053 5.312L38.4773 5.432H31.4213C31.9973 4.112 32.4773 2.816 32.9093 1.544L29.7173 0.823999C28.5173 5.168 25.9013 10.616 22.3013 13.808C23.1173 14.168 24.3893 14.912 25.0613 15.416C27.0293 13.544 28.7093 11 30.1013 8.288H36.9653C36.1493 10.184 34.9733 12.344 33.7013 14.12C32.4293 13.448 31.1333 12.824 29.9573 12.32L28.1813 14.72C31.4453 16.232 35.4293 18.728 37.2293 20.648L39.2213 17.912C38.5013 17.192 37.4933 16.448 36.3653 15.704C38.3093 12.92 40.1813 9.416 41.2133 6.488L39.0053 5.312ZM45.6293 6.848L46.9973 10.208C49.4933 9.128 55.1813 6.728 58.7093 6.728C61.5893 6.728 63.1493 8.456 63.1493 10.712C63.1493 14.888 58.0613 16.76 51.5573 16.928L52.9493 20.12C61.3973 19.688 66.5813 16.208 66.5813 10.76C66.5813 6.32 63.1733 3.824 58.8293 3.824C55.3253 3.824 50.4293 5.552 48.5813 6.128C47.7173 6.368 46.5173 6.704 45.6293 6.848ZM75.7227 20C75.5467 20 75.4027 19.944 75.2907 19.832C75.1787 19.72 75.1227 19.576 75.1227 19.4V3.8C75.1227 3.624 75.1787 3.48 75.2907 3.368C75.4187 3.256 75.5627 3.2 75.7227 3.2H78.8187C78.9947 3.2 79.1387 3.256 79.2507 3.368C79.3787 3.48 79.4427 3.624 79.4427 3.8V9.584H85.3467V3.8C85.3467 3.624 85.4027 3.48 85.5147 3.368C85.6267 3.256 85.7707 3.2 85.9467 3.2H89.0427C89.2187 3.2 89.3627 3.256 89.4747 3.368C89.5867 3.48 89.6427 3.624 89.6427 3.8V19.4C89.6427 19.576 89.5867 19.72 89.4747 19.832C89.3627 19.944 89.2187 20 89.0427 20H85.9467C85.7707 20 85.6267 19.944 85.5147 19.832C85.4027 19.72 85.3467 19.576 85.3467 19.4V13.424H79.4427V19.4C79.4427 19.576 79.3787 19.72 79.2507 19.832C79.1387 19.944 78.9947 20 78.8187 20H75.7227ZM93.6055 20C93.4455 20 93.3015 19.944 93.1735 19.832C93.0615 19.704 93.0055 19.56 93.0055 19.4V3.8C93.0055 3.624 93.0615 3.48 93.1735 3.368C93.3015 3.256 93.4455 3.2 93.6055 3.2H96.8215C96.9975 3.2 97.1415 3.256 97.2535 3.368C97.3815 3.48 97.4455 3.624 97.4455 3.8V19.4C97.4455 19.576 97.3815 19.72 97.2535 19.832C97.1415 19.944 96.9975 20 96.8215 20H93.6055ZM101.387 20C101.227 20 101.083 19.944 100.955 19.832C100.843 19.704 100.787 19.56 100.787 19.4V3.8C100.787 3.624 100.843 3.48 100.955 3.368C101.083 3.256 101.227 3.2 101.387 3.2H108.707C110.723 3.2 112.219 3.616 113.195 4.448C114.187 5.264 114.683 6.432 114.683 7.952C114.683 8.752 114.475 9.432 114.059 9.992C113.659 10.536 113.203 10.936 112.691 11.192C113.347 11.496 113.899 11.984 114.347 12.656C114.795 13.328 115.019 14.08 115.019 14.912C115.019 16.512 114.491 17.76 113.435 18.656C112.379 19.552 110.875 20 108.923 20H101.387ZM108.227 9.872C108.867 9.872 109.355 9.712 109.691 9.392C110.027 9.056 110.195 8.616 110.195 8.072C110.195 7.544 110.027 7.12 109.691 6.8C109.355 6.48 108.867 6.32 108.227 6.32H105.107V9.872H108.227ZM108.443 16.88C109.099 16.88 109.611 16.688 109.979 16.304C110.347 15.92 110.531 15.456 110.531 14.912C110.531 14.336 110.347 13.864 109.979 13.496C109.611 13.112 109.099 12.92 108.443 12.92H105.107V16.88H108.443ZM118.285 20C118.125 20 117.981 19.944 117.853 19.832C117.741 19.704 117.685 19.56 117.685 19.4V3.8C117.685 3.624 117.741 3.48 117.853 3.368C117.981 3.256 118.125 3.2 118.285 3.2H121.501C121.677 3.2 121.821 3.256 121.933 3.368C122.061 3.48 122.125 3.624 122.125 3.8V19.4C122.125 19.576 122.061 19.72 121.933 19.832C121.821 19.944 121.677 20 121.501 20H118.285ZM129.762 20C129.602 20 129.458 19.944 129.33 19.832C129.218 19.704 129.162 19.56 129.162 19.4V6.968H124.89C124.73 6.968 124.586 6.912 124.458 6.8C124.346 6.672 124.29 6.528 124.29 6.368V3.8C124.29 3.624 124.346 3.48 124.458 3.368C124.586 3.256 124.73 3.2 124.89 3.2H137.802C137.978 3.2 138.122 3.256 138.234 3.368C138.346 3.48 138.402 3.624 138.402 3.8V6.368C138.402 6.544 138.346 6.688 138.234 6.8C138.122 6.912 137.978 6.968 137.802 6.968H133.53V19.4C133.53 19.56 133.474 19.704 133.362 19.832C133.25 19.944 133.106 20 132.93 20H129.762ZM146.801 20.24C145.281 20.24 143.977 20.016 142.889 19.568C141.801 19.12 140.977 18.536 140.417 17.816C139.873 17.08 139.585 16.28 139.553 15.416C139.553 15.288 139.601 15.176 139.697 15.08C139.809 14.968 139.937 14.912 140.081 14.912H143.105C143.297 14.912 143.449 14.952 143.561 15.032C143.689 15.096 143.817 15.2 143.945 15.344C144.153 15.76 144.489 16.104 144.953 16.376C145.417 16.648 146.033 16.784 146.801 16.784C147.713 16.784 148.409 16.64 148.889 16.352C149.369 16.064 149.609 15.672 149.609 15.176C149.609 14.824 149.481 14.536 149.225 14.312C148.985 14.088 148.601 13.888 148.073 13.712C147.545 13.536 146.761 13.336 145.721 13.112C143.801 12.712 142.361 12.128 141.401 11.36C140.457 10.576 139.985 9.464 139.985 8.024C139.985 7.048 140.257 6.176 140.801 5.408C141.345 4.64 142.121 4.04 143.129 3.608C144.137 3.176 145.313 2.96 146.657 2.96C148.049 2.96 149.257 3.2 150.281 3.68C151.305 4.16 152.081 4.768 152.609 5.504C153.153 6.224 153.441 6.936 153.473 7.64C153.473 7.784 153.425 7.904 153.329 8C153.233 8.096 153.113 8.144 152.969 8.144H149.801C149.609 8.144 149.449 8.112 149.321 8.048C149.209 7.984 149.105 7.88 149.009 7.736C148.913 7.368 148.649 7.056 148.217 6.8C147.801 6.544 147.281 6.416 146.657 6.416C145.937 6.416 145.385 6.544 145.001 6.8C144.617 7.056 144.425 7.432 144.425 7.928C144.425 8.264 144.529 8.544 144.737 8.768C144.961 8.992 145.313 9.2 145.793 9.392C146.289 9.568 146.993 9.752 147.905 9.944C149.393 10.216 150.577 10.56 151.457 10.976C152.353 11.376 153.009 11.904 153.425 12.56C153.841 13.2 154.049 14.008 154.049 14.984C154.049 16.056 153.737 16.992 153.113 17.792C152.505 18.576 151.649 19.184 150.545 19.616C149.457 20.032 148.209 20.24 146.801 20.24ZM163.507 20.24C161.251 20.24 159.483 19.688 158.203 18.584C156.939 17.48 156.307 15.816 156.307 13.592V3.8C156.307 3.624 156.363 3.48 156.475 3.368C156.603 3.256 156.747 3.2 156.907 3.2H160.003C160.179 3.2 160.323 3.256 160.435 3.368C160.563 3.48 160.627 3.624 160.627 3.8V13.568C160.627 14.608 160.867 15.392 161.347 15.92C161.843 16.432 162.555 16.688 163.483 16.688C164.395 16.688 165.099 16.424 165.595 15.896C166.091 15.368 166.339 14.592 166.339 13.568V3.8C166.339 3.624 166.395 3.48 166.507 3.368C166.635 3.256 166.779 3.2 166.939 3.2H170.059C170.235 3.2 170.379 3.256 170.491 3.368C170.603 3.48 170.659 3.624 170.659 3.8V13.592C170.659 15.816 170.019 17.48 168.739 18.584C167.475 19.688 165.731 20.24 163.507 20.24Z" fill="#1DD479"/>
</svg>
