<?xml version="1.0" encoding="UTF-8"?> <svg xmlns="http://www.w3.org/2000/svg" viewBox="0 0 53.43 66.17"><defs><style>.cls-1{fill:#36abe1;}</style></defs><title>No Plastic Bottle</title><g id="Layer_2" data-name="Layer 2"><g id="Layer_1-2" data-name="Layer 1"><path class="cls-1" d="M32.49,10.19l-.32-.07V7.73l.26-.09a1.2,1.2,0,0,0,.8-1.13V1.18A1.19,1.19,0,0,0,32,0H21.39A1.19,1.19,0,0,0,20.2,1.2V6.51A1.22,1.22,0,0,0,21,7.64l.27.09v2.39l-.32.07a26.7,26.7,0,0,0-7.32,49.35l.2.11v.22a6.51,6.51,0,0,0,6.51,6.29H33.08a6.51,6.51,0,0,0,6.51-6.28v-.23l.2-.1a26.72,26.72,0,0,0-7.31-49.37Zm-9.88-7.8h8.24V5.31H22.61ZM13.85,56.9l-.63-.41a22.22,22.22,0,0,1-2.51-1.92l-.32-.27,3.46-3.46Zm1.9-39a6.51,6.51,0,0,0-1.9,4.6V47.45L8.7,52.6l-.27-.32A24.32,24.32,0,0,1,19.6,13l.4.66Zm.49,16.35H27L16.24,45.07Zm21,25.37a4.13,4.13,0,0,1-4.12,4.12H20.35a4.12,4.12,0,0,1-4.11-4.12V56.59h21Zm0-5.45h-21V48.45L30.41,34.28h6.82Zm0-22.32H32.8l4.43-4.42Zm0-7.8-7.8,7.8H16.24V22.53a4.13,4.13,0,0,1,1.21-2.91l5.88-5.89a1.17,1.17,0,0,0,.35-.85V7.71h6.11v5.18a1.24,1.24,0,0,0,.34.85L36,19.62a4.13,4.13,0,0,1,1.21,2.91Zm2.36-2.39L39.43,21a6.49,6.49,0,0,0-1.73-3.08l-4.23-4.24.38-.68a24,24,0,0,1,8.9,4.93l.32.28Zm3.1,32.93a24.76,24.76,0,0,1-2.45,1.87l-.62.41V25.07l5.15-5.14.28.32A24.4,24.4,0,0,1,42.69,54.62Z"></path></g></g></svg> 